<mxfile host="app.diagrams.net" modified="2022-04-24T00:33:50.063Z" agent="5.0 (Macintosh; Intel Mac OS X 10_15_7) AppleWebKit/537.36 (KHTML, like Gecko) Chrome/96.0.4664.110 Safari/537.36 Edg/96.0.1054.62" etag="yRqgm4mLXu9z5pyEx2B0" version="17.4.5" type="github">
  <diagram id="qwKRBattrOxvVShx7A_8" name="Page-1">
    <mxGraphModel dx="1056" dy="570" grid="1" gridSize="10" guides="1" tooltips="1" connect="1" arrows="1" fold="1" page="1" pageScale="1" pageWidth="827" pageHeight="1169" math="0" shadow="0">
      <root>
        <mxCell id="0" />
        <mxCell id="1" parent="0" />
        <mxCell id="aP8lu7kHr-6-15jdSYuo-8" value="" style="whiteSpace=wrap;html=1;dashed=1;rounded=1;" parent="1" vertex="1">
          <mxGeometry x="560" y="100" width="262" height="290" as="geometry" />
        </mxCell>
        <mxCell id="aP8lu7kHr-6-15jdSYuo-2" value="" style="shape=image;verticalLabelPosition=bottom;labelBackgroundColor=#ffffff;verticalAlign=top;aspect=fixed;imageAspect=0;image=https://blog.alexellis.io/content/images/2017/08/faas_side.png;" parent="1" vertex="1">
          <mxGeometry x="603.28" y="124" width="177.44" height="41.29" as="geometry" />
        </mxCell>
        <mxCell id="aP8lu7kHr-6-15jdSYuo-43" style="edgeStyle=orthogonalEdgeStyle;rounded=0;orthogonalLoop=1;jettySize=auto;html=1;fontSize=12;fontColor=#000000;exitX=0.817;exitY=1;exitDx=0;exitDy=0;exitPerimeter=0;" parent="1" source="aP8lu7kHr-6-15jdSYuo-13" target="aP8lu7kHr-6-15jdSYuo-20" edge="1">
          <mxGeometry relative="1" as="geometry" />
        </mxCell>
        <mxCell id="aP8lu7kHr-6-15jdSYuo-87" value="invoke" style="edgeLabel;html=1;align=center;verticalAlign=middle;resizable=0;points=[];fontSize=12;fontColor=#000000;" parent="aP8lu7kHr-6-15jdSYuo-43" vertex="1" connectable="0">
          <mxGeometry x="-0.3619" y="1" relative="1" as="geometry">
            <mxPoint y="2" as="offset" />
          </mxGeometry>
        </mxCell>
        <mxCell id="aP8lu7kHr-6-15jdSYuo-13" value="Gateway" style="whiteSpace=wrap;html=1;rounded=1;dashed=1;fillColor=#1ba1e2;fontColor=#ffffff;strokeColor=#006EAF;fontSize=18;" parent="1" vertex="1">
          <mxGeometry x="602" y="184" width="180" height="56" as="geometry" />
        </mxCell>
        <mxCell id="aP8lu7kHr-6-15jdSYuo-40" style="edgeStyle=orthogonalEdgeStyle;rounded=0;orthogonalLoop=1;jettySize=auto;html=1;entryX=0.19;entryY=1;entryDx=0;entryDy=0;entryPerimeter=0;fontSize=12;fontColor=#000000;" parent="1" source="aP8lu7kHr-6-15jdSYuo-19" target="aP8lu7kHr-6-15jdSYuo-13" edge="1">
          <mxGeometry relative="1" as="geometry" />
        </mxCell>
        <mxCell id="aP8lu7kHr-6-15jdSYuo-86" value="invoke functions" style="edgeLabel;html=1;align=center;verticalAlign=middle;resizable=0;points=[];fontSize=12;fontColor=#000000;" parent="aP8lu7kHr-6-15jdSYuo-40" vertex="1" connectable="0">
          <mxGeometry x="0.2275" y="1" relative="1" as="geometry">
            <mxPoint y="5" as="offset" />
          </mxGeometry>
        </mxCell>
        <mxCell id="aP8lu7kHr-6-15jdSYuo-24" value="" style="whiteSpace=wrap;html=1;rounded=1;dashed=1;fontSize=11;" parent="1" vertex="1">
          <mxGeometry x="100" y="100" width="410" height="290" as="geometry" />
        </mxCell>
        <mxCell id="TTONOQml-osO5leO4Pck-7" style="edgeStyle=orthogonalEdgeStyle;rounded=0;orthogonalLoop=1;jettySize=auto;html=1;entryX=1;entryY=0.5;entryDx=0;entryDy=0;exitX=0.5;exitY=1;exitDx=0;exitDy=0;" edge="1" parent="1" source="aP8lu7kHr-6-15jdSYuo-19" target="aP8lu7kHr-6-15jdSYuo-47">
          <mxGeometry relative="1" as="geometry" />
        </mxCell>
        <mxCell id="aP8lu7kHr-6-15jdSYuo-19" value="Workflow&lt;br&gt;Engine" style="ellipse;whiteSpace=wrap;html=1;rounded=1;dashed=1;fontSize=11;fillColor=#FF8000;fontColor=#ffffff;strokeColor=#006EAF;" parent="1" vertex="1">
          <mxGeometry x="603.28" y="274" width="66" height="66" as="geometry" />
        </mxCell>
        <mxCell id="aP8lu7kHr-6-15jdSYuo-20" value="Regular&lt;br&gt;Functions" style="ellipse;whiteSpace=wrap;html=1;rounded=1;dashed=1;fontSize=11;fillColor=#1ba1e2;fontColor=#ffffff;strokeColor=#006EAF;" parent="1" vertex="1">
          <mxGeometry x="716" y="274" width="66" height="66" as="geometry" />
        </mxCell>
        <mxCell id="aP8lu7kHr-6-15jdSYuo-53" style="edgeStyle=orthogonalEdgeStyle;rounded=0;orthogonalLoop=1;jettySize=auto;html=1;entryX=0.5;entryY=0;entryDx=0;entryDy=0;fontSize=12;fontColor=#000000;" parent="1" source="aP8lu7kHr-6-15jdSYuo-34" target="aP8lu7kHr-6-15jdSYuo-46" edge="1">
          <mxGeometry relative="1" as="geometry">
            <Array as="points" />
          </mxGeometry>
        </mxCell>
        <mxCell id="aP8lu7kHr-6-15jdSYuo-92" value="CRUD / invoke&lt;br&gt;workflows &amp;amp; triggers" style="edgeLabel;html=1;align=center;verticalAlign=middle;resizable=0;points=[];fontSize=10;fontColor=#000000;" parent="aP8lu7kHr-6-15jdSYuo-53" vertex="1" connectable="0">
          <mxGeometry x="-0.1305" y="-1" relative="1" as="geometry">
            <mxPoint y="5" as="offset" />
          </mxGeometry>
        </mxCell>
        <mxCell id="aP8lu7kHr-6-15jdSYuo-34" value="API Server" style="whiteSpace=wrap;html=1;rounded=1;dashed=1;fontSize=18;fillColor=#FF8000;strokeColor=#36393d;fontColor=#FFFFFF;" parent="1" vertex="1">
          <mxGeometry x="280" y="136" width="120" height="60" as="geometry" />
        </mxCell>
        <mxCell id="aP8lu7kHr-6-15jdSYuo-36" style="edgeStyle=orthogonalEdgeStyle;rounded=0;orthogonalLoop=1;jettySize=auto;html=1;fontSize=18;fontColor=#FFFFFF;" parent="1" source="aP8lu7kHr-6-15jdSYuo-35" target="aP8lu7kHr-6-15jdSYuo-34" edge="1">
          <mxGeometry relative="1" as="geometry" />
        </mxCell>
        <mxCell id="aP8lu7kHr-6-15jdSYuo-93" value="REST API / CLI" style="edgeLabel;html=1;align=center;verticalAlign=middle;resizable=0;points=[];fontSize=10;fontColor=#000000;" parent="aP8lu7kHr-6-15jdSYuo-36" vertex="1" connectable="0">
          <mxGeometry x="-0.3994" y="-2" relative="1" as="geometry">
            <mxPoint y="-5" as="offset" />
          </mxGeometry>
        </mxCell>
        <mxCell id="aP8lu7kHr-6-15jdSYuo-35" value="" style="verticalLabelPosition=bottom;html=1;verticalAlign=top;align=center;strokeColor=none;fillColor=#00BEF2;shape=mxgraph.azure.laptop;pointerEvents=1;rounded=1;dashed=1;fontSize=18;fontColor=#FFFFFF;" parent="1" vertex="1">
          <mxGeometry x="305" y="30" width="70" height="40" as="geometry" />
        </mxCell>
        <mxCell id="aP8lu7kHr-6-15jdSYuo-65" value="" style="edgeStyle=orthogonalEdgeStyle;rounded=0;orthogonalLoop=1;jettySize=auto;html=1;fontSize=12;fontColor=#000000;exitX=0;exitY=0.5;exitDx=0;exitDy=0;startArrow=classic;startFill=1;" parent="1" source="aP8lu7kHr-6-15jdSYuo-34" target="aP8lu7kHr-6-15jdSYuo-64" edge="1">
          <mxGeometry relative="1" as="geometry" />
        </mxCell>
        <mxCell id="aP8lu7kHr-6-15jdSYuo-66" value="metrics" style="edgeLabel;html=1;align=center;verticalAlign=middle;resizable=0;points=[];fontSize=12;fontColor=#000000;" parent="aP8lu7kHr-6-15jdSYuo-65" vertex="1" connectable="0">
          <mxGeometry x="0.3769" y="-2" relative="1" as="geometry">
            <mxPoint x="20" y="2" as="offset" />
          </mxGeometry>
        </mxCell>
        <mxCell id="aP8lu7kHr-6-15jdSYuo-79" style="edgeStyle=orthogonalEdgeStyle;rounded=0;orthogonalLoop=1;jettySize=auto;html=1;fontSize=12;fontColor=#000000;startArrow=classic;startFill=1;endArrow=none;endFill=0;" parent="1" source="aP8lu7kHr-6-15jdSYuo-46" target="aP8lu7kHr-6-15jdSYuo-47" edge="1">
          <mxGeometry relative="1" as="geometry" />
        </mxCell>
        <mxCell id="aP8lu7kHr-6-15jdSYuo-90" value="subscribe" style="edgeLabel;html=1;align=center;verticalAlign=middle;resizable=0;points=[];fontSize=10;fontColor=#000000;" parent="aP8lu7kHr-6-15jdSYuo-79" vertex="1" connectable="0">
          <mxGeometry x="-0.2588" y="-1" relative="1" as="geometry">
            <mxPoint y="-3" as="offset" />
          </mxGeometry>
        </mxCell>
        <mxCell id="aP8lu7kHr-6-15jdSYuo-81" style="edgeStyle=orthogonalEdgeStyle;rounded=0;orthogonalLoop=1;jettySize=auto;html=1;fontSize=12;fontColor=#000000;startArrow=none;startFill=0;endArrow=classic;endFill=1;entryX=0;entryY=0.75;entryDx=0;entryDy=0;" parent="1" source="aP8lu7kHr-6-15jdSYuo-46" target="aP8lu7kHr-6-15jdSYuo-13" edge="1">
          <mxGeometry relative="1" as="geometry">
            <mxPoint x="602" y="230" as="targetPoint" />
            <Array as="points">
              <mxPoint x="580" y="290" />
              <mxPoint x="580" y="226" />
            </Array>
          </mxGeometry>
        </mxCell>
        <mxCell id="aP8lu7kHr-6-15jdSYuo-82" value="create / invoke workflows" style="edgeLabel;html=1;align=center;verticalAlign=middle;resizable=0;points=[];fontSize=12;fontColor=#000000;" parent="aP8lu7kHr-6-15jdSYuo-81" vertex="1" connectable="0">
          <mxGeometry x="-0.6774" y="-2" relative="1" as="geometry">
            <mxPoint x="66" y="-3" as="offset" />
          </mxGeometry>
        </mxCell>
        <mxCell id="aP8lu7kHr-6-15jdSYuo-97" style="edgeStyle=orthogonalEdgeStyle;rounded=0;orthogonalLoop=1;jettySize=auto;html=1;entryX=0.5;entryY=1;entryDx=0;entryDy=0;fontSize=14;fontColor=#000000;startArrow=none;startFill=0;endArrow=classic;endFill=1;" parent="1" source="aP8lu7kHr-6-15jdSYuo-46" target="aP8lu7kHr-6-15jdSYuo-95" edge="1">
          <mxGeometry relative="1" as="geometry" />
        </mxCell>
        <mxCell id="aP8lu7kHr-6-15jdSYuo-104" value="create" style="edgeLabel;html=1;align=center;verticalAlign=middle;resizable=0;points=[];fontSize=12;fontColor=#000000;" parent="aP8lu7kHr-6-15jdSYuo-97" vertex="1" connectable="0">
          <mxGeometry x="0.4897" y="1" relative="1" as="geometry">
            <mxPoint y="4" as="offset" />
          </mxGeometry>
        </mxCell>
        <mxCell id="aP8lu7kHr-6-15jdSYuo-46" value="Controller" style="whiteSpace=wrap;html=1;rounded=1;dashed=1;fontSize=18;fillColor=#FF8000;strokeColor=#36393d;fontColor=#FFFFFF;" parent="1" vertex="1">
          <mxGeometry x="280" y="260" width="120" height="60" as="geometry" />
        </mxCell>
        <mxCell id="aP8lu7kHr-6-15jdSYuo-47" value="" style="shape=image;verticalLabelPosition=bottom;labelBackgroundColor=#ffffff;verticalAlign=top;aspect=fixed;imageAspect=0;image=https://nats.io/img/logos/nats-horizontal-color.png;" parent="1" vertex="1">
          <mxGeometry x="281.79" y="350" width="116.42" height="30" as="geometry" />
        </mxCell>
        <mxCell id="aP8lu7kHr-6-15jdSYuo-64" value="" style="shape=image;imageAspect=0;aspect=fixed;verticalLabelPosition=bottom;verticalAlign=top;rounded=1;dashed=1;fontSize=12;fontColor=#000000;fillColor=#FF8000;image=https://avatars.githubusercontent.com/u/3380462?s=200&amp;v=4;" parent="1" vertex="1">
          <mxGeometry x="140" y="143.5" width="45" height="45" as="geometry" />
        </mxCell>
        <mxCell id="aP8lu7kHr-6-15jdSYuo-83" style="edgeStyle=orthogonalEdgeStyle;rounded=0;orthogonalLoop=1;jettySize=auto;html=1;fontSize=12;fontColor=#000000;startArrow=classic;startFill=1;endArrow=classic;endFill=1;" parent="1" source="aP8lu7kHr-6-15jdSYuo-67" edge="1">
          <mxGeometry relative="1" as="geometry">
            <mxPoint x="320" y="196" as="targetPoint" />
            <Array as="points">
              <mxPoint x="160" y="210" />
              <mxPoint x="320" y="210" />
            </Array>
          </mxGeometry>
        </mxCell>
        <mxCell id="aP8lu7kHr-6-15jdSYuo-88" value="metadata" style="edgeLabel;html=1;align=center;verticalAlign=middle;resizable=0;points=[];fontSize=12;fontColor=#000000;" parent="aP8lu7kHr-6-15jdSYuo-83" vertex="1" connectable="0">
          <mxGeometry x="0.028" y="1" relative="1" as="geometry">
            <mxPoint x="11" as="offset" />
          </mxGeometry>
        </mxCell>
        <mxCell id="aP8lu7kHr-6-15jdSYuo-84" style="edgeStyle=orthogonalEdgeStyle;rounded=0;orthogonalLoop=1;jettySize=auto;html=1;fontSize=12;fontColor=#000000;startArrow=classic;startFill=1;endArrow=classic;endFill=1;exitX=1;exitY=0.5;exitDx=0;exitDy=0;" parent="1" source="aP8lu7kHr-6-15jdSYuo-67" edge="1">
          <mxGeometry relative="1" as="geometry">
            <mxPoint x="191" y="290" as="sourcePoint" />
            <mxPoint x="281" y="290" as="targetPoint" />
          </mxGeometry>
        </mxCell>
        <mxCell id="aP8lu7kHr-6-15jdSYuo-89" value="metadata" style="edgeLabel;html=1;align=center;verticalAlign=middle;resizable=0;points=[];fontSize=12;fontColor=#000000;" parent="aP8lu7kHr-6-15jdSYuo-84" vertex="1" connectable="0">
          <mxGeometry x="-0.3124" relative="1" as="geometry">
            <mxPoint x="14" y="-1" as="offset" />
          </mxGeometry>
        </mxCell>
        <mxCell id="aP8lu7kHr-6-15jdSYuo-67" value="" style="shape=image;imageAspect=0;aspect=fixed;verticalLabelPosition=bottom;verticalAlign=top;rounded=1;dashed=1;fontSize=12;fontColor=#000000;fillColor=#FF8000;image=https://raw.githubusercontent.com/github/explore/80688e429a7d4ef2fca1e82350fe8e3517d3494d/topics/postgresql/postgresql.png;" parent="1" vertex="1">
          <mxGeometry x="140" y="265" width="50" height="50" as="geometry" />
        </mxCell>
        <mxCell id="TTONOQml-osO5leO4Pck-6" style="edgeStyle=orthogonalEdgeStyle;rounded=0;orthogonalLoop=1;jettySize=auto;html=1;entryX=1;entryY=0.5;entryDx=0;entryDy=0;" edge="1" parent="1" source="aP8lu7kHr-6-15jdSYuo-95" target="aP8lu7kHr-6-15jdSYuo-47">
          <mxGeometry relative="1" as="geometry">
            <Array as="points">
              <mxPoint x="470" y="213" />
              <mxPoint x="470" y="365" />
            </Array>
          </mxGeometry>
        </mxCell>
        <mxCell id="TTONOQml-osO5leO4Pck-8" value="publish" style="edgeLabel;html=1;align=center;verticalAlign=middle;resizable=0;points=[];" vertex="1" connectable="0" parent="TTONOQml-osO5leO4Pck-6">
          <mxGeometry x="0.7696" y="1" relative="1" as="geometry">
            <mxPoint x="16" as="offset" />
          </mxGeometry>
        </mxCell>
        <mxCell id="aP8lu7kHr-6-15jdSYuo-95" value="Triggers" style="ellipse;whiteSpace=wrap;html=1;rounded=1;dashed=1;fontSize=12;fillColor=#FF8000;fontColor=#ffffff;strokeColor=#006EAF;" parent="1" vertex="1">
          <mxGeometry x="410" y="187" width="53" height="53" as="geometry" />
        </mxCell>
        <mxCell id="aP8lu7kHr-6-15jdSYuo-105" value="Walle Workflow" style="text;html=1;resizable=0;autosize=1;align=center;verticalAlign=middle;points=[];fillColor=none;strokeColor=none;rounded=0;dashed=1;fontSize=18;fontColor=#FF8000;fontStyle=1" parent="1" vertex="1">
          <mxGeometry x="120" y="106" width="150" height="30" as="geometry" />
        </mxCell>
      </root>
    </mxGraphModel>
  </diagram>
</mxfile>
